<svg width="70" height="70" viewBox="0 0 70 70" fill="none" xmlns="http://www.w3.org/2000/svg">
<path d="M62.1841 8H55.3761C55.3761 10.888 53.0321 13.232 50.1441 13.232C47.2561 13.232 44.9121 10.888 44.9121 8H38.1041C38.1041 9.08 37.7761 10.08 37.2161 10.912C40.7521 14.84 42.9121 20.04 42.9121 25.728C42.9121 33.416 38.9841 40.304 32.8721 44.296V57.432C35.7601 57.432 38.1041 59.776 38.1041 62.664H44.9121C44.9121 59.776 47.2561 57.432 50.1441 57.432C53.0321 57.432 55.3761 59.776 55.3761 62.664H62.1841C62.1841 59.776 64.5281 57.432 67.4161 57.432V13.232C64.5281 13.232 62.1841 10.888 62.1841 8Z" fill="#FFD56B"/>
<path d="M38.472 25.736C38.472 15.944 30.528 8 20.736 8C10.944 8 3 15.944 3 25.736C3 34.448 9.28799 41.696 17.576 43.184L16.744 44.632C16.36 45.304 16.84 46.136 17.616 46.136H19.2V61.128C19.2 61.976 19.888 62.672 20.744 62.672C21.6 62.672 22.288 61.984 22.288 61.128V46.136H23.872C24.648 46.136 25.128 45.304 24.744 44.632L23.912 43.184C32.2 41.696 38.488 34.448 38.488 25.736H38.472Z" fill="#F07348"/>
</svg>
