<svg width="101" height="100" viewBox="0 0 101 100" fill="none" xmlns="http://www.w3.org/2000/svg">
<path d="M54.47 24.17C54.47 11.93 44.54 2 32.3 2C20.06 2 10.13 11.93 10.13 24.17C10.13 35.06 17.99 44.12 28.35 45.98L27.31 47.79C26.83 48.63 27.43 49.67 28.4 49.67H30.38V68.41C30.38 69.47 31.24 70.34 32.31 70.34C33.38 70.34 34.24 69.48 34.24 68.41V49.67H36.22C37.19 49.67 37.79 48.63 37.31 47.79L36.27 45.98C46.63 44.12 54.49 35.06 54.49 24.17H54.47Z" fill="white"/>
<path d="M84.11 2H75.6C75.6 5.61 72.67 8.54 69.06 8.54C65.45 8.54 62.52 5.61 62.52 2H54.01C54.01 3.35 53.6 4.6 52.9 5.64C57.32 10.55 60.02 17.05 60.02 24.16C60.02 33.77 55.11 42.38 47.47 47.37V63.79C51.08 63.79 54.01 66.72 54.01 70.33H62.52C62.52 66.72 65.45 63.79 69.06 63.79C72.67 63.79 75.6 66.72 75.6 70.33H84.11C84.11 66.72 87.04 63.79 90.65 63.79V8.54C87.04 8.54 84.11 5.61 84.11 2Z" fill="white"/>
<path d="M4 96.29C4 95.8 4.31 95.32 5.3 94.57V83.46C4.51 82.86 4.06 82.22 4.06 81.74C4.06 81.26 4.33 80.83 5.41 80.83H12.24C13.39 80.83 13.63 80.34 14.43 80.34C15 80.34 15.47 80.63 15.8 81.33C16.24 82.32 16.46 83.34 16.48 84.42C16.5 85.08 16.19 85.57 15.62 85.57C15.13 85.57 14.78 85.26 14.41 84.69C13.72 83.67 13.26 83.47 11.94 83.47H9.55V87.05H11.58C12.22 87.05 12.66 86.45 13.28 86.45C13.66 86.45 13.94 86.65 14.21 87.09C14.65 87.8 15 89.08 15 90.16C15 90.78 14.69 91.15 14.25 91.15C13.87 91.15 13.61 91 13.17 90.55C12.51 89.89 12.17 89.64 11.38 89.64H9.55V94.52H12.42C13.75 94.52 14.17 94.25 14.89 93.17C15.27 92.6 15.62 92.29 16.11 92.29C16.68 92.29 16.95 92.78 16.97 93.44C17.01 94.57 16.75 95.63 16.29 96.67C15.96 97.38 15.49 97.66 14.92 97.66C14.13 97.66 13.88 97.17 12.73 97.17H5.24C4.4 97.17 4 96.79 4 96.26V96.29Z" fill="white"/>
<path d="M23.71 95.78C22.41 93.42 20.06 86.7 19.07 83.3C18.3 82.64 17.86 82.15 17.86 81.64C17.86 81.13 18.1 80.73 19.23 80.73H23.43C24.64 80.73 24.8 81.15 24.8 81.64C24.8 82.13 24.36 82.59 23.58 83.3C24.31 86.06 25.66 90.15 26.47 92.51H26.65C27.51 90.19 28.79 86.12 29.41 83.3C28.64 82.59 28.2 82.15 28.2 81.64C28.2 81.13 28.35 80.73 29.57 80.73H32.66C33.88 80.73 34.12 81.15 34.12 81.64C34.12 82.19 33.72 82.68 32.84 83.41C31.85 86.83 29.77 93.46 28.6 95.72C28.09 96.71 27.5 97.33 26.24 97.33C24.65 97.33 24.25 96.73 23.72 95.78H23.71Z" fill="white"/>
<path d="M35.36 96.29C35.36 95.8 35.67 95.32 36.66 94.57V83.46C35.87 82.86 35.42 82.22 35.42 81.74C35.42 81.26 35.69 80.83 36.77 80.83H43.6C44.75 80.83 44.99 80.34 45.79 80.34C46.37 80.34 46.83 80.63 47.16 81.33C47.6 82.32 47.82 83.34 47.84 84.42C47.86 85.08 47.55 85.57 46.98 85.57C46.49 85.57 46.14 85.26 45.77 84.69C45.08 83.67 44.62 83.47 43.3 83.47H40.91V87.05H42.94C43.58 87.05 44.02 86.45 44.64 86.45C45.02 86.45 45.3 86.65 45.57 87.09C46.01 87.8 46.37 89.08 46.37 90.16C46.37 90.78 46.06 91.15 45.62 91.15C45.24 91.15 44.98 91 44.54 90.55C43.88 89.89 43.55 89.64 42.75 89.64H40.92V94.52H43.79C45.12 94.52 45.54 94.25 46.26 93.17C46.64 92.6 46.99 92.29 47.48 92.29C48.05 92.29 48.32 92.78 48.34 93.44C48.38 94.57 48.12 95.63 47.66 96.67C47.33 97.38 46.86 97.66 46.29 97.66C45.49 97.66 45.25 97.17 44.1 97.17H36.61C35.77 97.17 35.37 96.79 35.37 96.26L35.36 96.29Z" fill="white"/>
<path d="M60.7 96.14L54.78 87.21V94.63C55.55 95.34 56 95.78 56 96.29C56 96.8 55.84 97.2 54.63 97.2H51.51C50.3 97.2 50.14 96.78 50.14 96.29C50.14 95.8 50.58 95.34 51.36 94.63V83.3C50.59 82.59 50.14 82.15 50.14 81.64C50.14 81.13 50.3 80.73 51.51 80.73H53.65C55.13 80.73 55.46 81.08 56.08 82.01L61.12 89.48V83.29C60.35 82.58 59.91 82.14 59.91 81.63C59.91 81.12 60.06 80.72 61.28 80.72H64.4C65.62 80.72 65.77 81.14 65.77 81.63C65.77 82.12 65.33 82.58 64.56 83.29V95.35C64.56 96.59 63.96 97.29 62.68 97.29C61.82 97.29 61.31 97.03 60.71 96.12L60.7 96.14Z" fill="white"/>
<path d="M71.13 96.29C71.13 95.78 71.57 95.34 72.34 94.63V83.43H71.72C70.55 83.43 70.11 83.94 69.38 85.04C69 85.64 68.61 85.95 68.12 85.95C67.52 85.95 67.24 85.44 67.21 84.78C67.19 83.65 67.45 82.5 67.83 81.31C68.07 80.56 68.58 80.34 69.13 80.34C69.88 80.34 70.1 80.83 71.43 80.83H77.48C78.81 80.83 79.03 80.34 79.78 80.34C80.33 80.34 80.84 80.56 81.08 81.31C81.46 82.5 81.72 83.65 81.7 84.78C81.68 85.44 81.39 85.95 80.79 85.95C80.3 85.95 79.91 85.64 79.53 85.04C78.8 83.94 78.36 83.43 77.19 83.43H76.57V94.63C77.34 95.34 77.79 95.78 77.79 96.29C77.79 96.8 77.63 97.2 76.42 97.2H72.49C71.27 97.2 71.12 96.78 71.12 96.29H71.13Z" fill="white"/>
<path d="M89.8 96.29C89.8 95.78 90.24 95.34 91.01 94.63L90.57 92.84H85.82C85.64 93.48 85.49 94.08 85.36 94.63C86.13 95.34 86.58 95.78 86.58 96.29C86.58 96.8 86.42 97.2 85.21 97.2H82.25C81.04 97.2 80.88 96.78 80.88 96.29C80.88 95.8 81.32 95.34 82.1 94.63C83.05 90.9 84.33 87.05 85.66 83.38C85.06 82.83 84.6 82.32 84.6 81.66C84.6 81.04 85.15 80.73 86.54 80.73H88.84C90.61 80.73 91.25 81.02 91.76 82.43C92.93 85.72 94.41 90.27 95.56 94.63C96.33 95.34 96.78 95.78 96.78 96.29C96.78 96.8 96.62 97.2 95.41 97.2H91.19C89.97 97.2 89.82 96.78 89.82 96.29H89.8ZM89.85 90.19C89.32 88.29 88.77 86.41 88.33 85.06H88.13C87.64 86.65 87.09 88.44 86.58 90.19H89.85Z" fill="white"/>
</svg>
