<svg width="80" height="80" viewBox="0 0 80 80" fill="none" xmlns="http://www.w3.org/2000/svg">
<path d="M4.7041 77.448C4.7041 77.056 4.9521 76.672 5.7441 76.072V67.184C5.1121 66.704 4.7521 66.192 4.7521 65.808C4.7521 65.424 4.9681 65.08 5.8321 65.08H11.2961C12.2161 65.08 12.4081 64.688 13.0481 64.688C13.5041 64.688 13.8801 64.92 14.1441 65.48C14.4961 66.272 14.6721 67.088 14.6881 67.952C14.7041 68.48 14.4561 68.872 14.0001 68.872C13.6081 68.872 13.3281 68.624 13.0321 68.168C12.4801 67.352 12.1121 67.192 11.0561 67.192H9.1441V70.056H10.7681C11.2801 70.056 11.6321 69.576 12.1281 69.576C12.4321 69.576 12.6561 69.736 12.8721 70.088C13.2241 70.656 13.5041 71.68 13.5041 72.544C13.5041 73.04 13.2561 73.336 12.9041 73.336C12.6001 73.336 12.3921 73.216 12.0401 72.856C11.5121 72.328 11.2401 72.128 10.6081 72.128H9.1441V76.032H11.4401C12.5041 76.032 12.8401 75.816 13.4161 74.952C13.7201 74.496 14.0001 74.248 14.3921 74.248C14.8481 74.248 15.0641 74.64 15.0801 75.168C15.1121 76.072 14.9041 76.92 14.5361 77.752C14.2721 78.32 13.8961 78.544 13.4401 78.544C12.8081 78.544 12.6081 78.152 11.6881 78.152H5.6961C5.0241 78.152 4.7041 77.848 4.7041 77.424V77.448Z" fill="#262626"/>
<path d="M20.4721 77.04C19.4321 75.152 17.5521 69.776 16.7601 67.056C16.1441 66.528 15.7921 66.136 15.7921 65.728C15.7921 65.32 15.9841 65 16.8881 65H20.2481C21.2161 65 21.3441 65.336 21.3441 65.728C21.3441 66.12 20.9921 66.488 20.3681 67.056C20.9521 69.264 22.0321 72.536 22.6801 74.424H22.8241C23.5121 72.568 24.5361 69.312 25.0321 67.056C24.4161 66.488 24.0641 66.136 24.0641 65.728C24.0641 65.32 24.1841 65 25.1601 65H27.6321C28.6081 65 28.8001 65.336 28.8001 65.728C28.8001 66.168 28.4801 66.56 27.7761 67.144C26.9841 69.88 25.3201 75.184 24.3841 76.992C23.9761 77.784 23.5041 78.28 22.4961 78.28C21.2241 78.28 20.9041 77.8 20.4801 77.04H20.4721Z" fill="#262626"/>
<path d="M29.7921 77.448C29.7921 77.056 30.0401 76.672 30.8321 76.072V67.184C30.2001 66.704 29.8401 66.192 29.8401 65.808C29.8401 65.424 30.0561 65.08 30.9201 65.08H36.3841C37.3041 65.08 37.4961 64.688 38.1361 64.688C38.6001 64.688 38.9681 64.92 39.2321 65.48C39.5841 66.272 39.7601 67.088 39.7761 67.952C39.7921 68.48 39.5441 68.872 39.0881 68.872C38.6961 68.872 38.4161 68.624 38.1201 68.168C37.5681 67.352 37.2001 67.192 36.1441 67.192H34.2321V70.056H35.8561C36.3681 70.056 36.7201 69.576 37.2161 69.576C37.5201 69.576 37.7441 69.736 37.9601 70.088C38.3121 70.656 38.6001 71.68 38.6001 72.544C38.6001 73.04 38.3521 73.336 38.0001 73.336C37.6961 73.336 37.4881 73.216 37.1361 72.856C36.6081 72.328 36.3441 72.128 35.7041 72.128H34.2401V76.032H36.5361C37.6001 76.032 37.9361 75.816 38.5121 74.952C38.8161 74.496 39.0961 74.248 39.4881 74.248C39.9441 74.248 40.1601 74.64 40.1761 75.168C40.2081 76.072 40.0001 76.92 39.6321 77.752C39.3681 78.32 38.9921 78.544 38.5361 78.544C37.8961 78.544 37.7041 78.152 36.7841 78.152H30.7921C30.1201 78.152 29.8001 77.848 29.8001 77.424L29.7921 77.448Z" fill="#262626"/>
<path d="M50.0641 77.328L45.3281 70.184V76.12C45.9441 76.688 46.3041 77.04 46.3041 77.448C46.3041 77.856 46.1761 78.176 45.2081 78.176H42.7121C41.7441 78.176 41.6161 77.84 41.6161 77.448C41.6161 77.056 41.9681 76.688 42.5921 76.12V67.056C41.9761 66.488 41.6161 66.136 41.6161 65.728C41.6161 65.32 41.7441 65 42.7121 65H44.4241C45.6081 65 45.8721 65.28 46.3681 66.024L50.4001 72V67.048C49.7841 66.48 49.4321 66.128 49.4321 65.72C49.4321 65.312 49.5521 64.992 50.5281 64.992H53.0241C54.0001 64.992 54.1201 65.328 54.1201 65.72C54.1201 66.112 53.7681 66.48 53.1521 67.048V76.696C53.1521 77.688 52.6721 78.248 51.6481 78.248C50.9601 78.248 50.5521 78.04 50.0721 77.312L50.0641 77.328Z" fill="#262626"/>
<path d="M58.4081 77.448C58.4081 77.04 58.7601 76.688 59.3761 76.12V67.16H58.8801C57.9441 67.16 57.5921 67.568 57.0081 68.448C56.7041 68.928 56.3921 69.176 56.0001 69.176C55.5201 69.176 55.2961 68.768 55.2721 68.24C55.2561 67.336 55.4641 66.416 55.7681 65.464C55.9601 64.864 56.3681 64.688 56.8081 64.688C57.4081 64.688 57.5841 65.08 58.6481 65.08H63.4881C64.5521 65.08 64.7281 64.688 65.3281 64.688C65.7681 64.688 66.1761 64.864 66.3681 65.464C66.6721 66.416 66.8801 67.336 66.8641 68.24C66.8481 68.768 66.6161 69.176 66.1361 69.176C65.7441 69.176 65.4321 68.928 65.1281 68.448C64.5441 67.568 64.1921 67.16 63.2561 67.16H62.7601V76.12C63.3761 76.688 63.7361 77.04 63.7361 77.448C63.7361 77.856 63.6081 78.176 62.6401 78.176H59.4961C58.5201 78.176 58.4001 77.84 58.4001 77.448H58.4081Z" fill="#262626"/>
<path d="M73.3441 77.448C73.3441 77.04 73.6961 76.688 74.3121 76.12L73.9601 74.688H70.1601C70.0161 75.2 69.8961 75.68 69.7921 76.12C70.4081 76.688 70.7681 77.04 70.7681 77.448C70.7681 77.856 70.6401 78.176 69.6721 78.176H67.3041C66.3361 78.176 66.2081 77.84 66.2081 77.448C66.2081 77.056 66.5601 76.688 67.1841 76.12C67.9441 73.136 68.9681 70.056 70.0321 67.12C69.5521 66.68 69.1841 66.272 69.1841 65.744C69.1841 65.248 69.6241 65 70.7361 65H72.5761C73.9921 65 74.5041 65.232 74.9121 66.36C75.8481 68.992 77.0321 72.632 77.9521 76.12C78.5681 76.688 78.9281 77.04 78.9281 77.448C78.9281 77.856 78.8001 78.176 77.8321 78.176H74.4561C73.4801 78.176 73.3601 77.84 73.3601 77.448H73.3441ZM73.3841 72.568C72.9601 71.048 72.5201 69.544 72.1681 68.464H72.0081C71.6161 69.736 71.1761 71.168 70.7681 72.568H73.3841Z" fill="#262626"/>
<path d="M41.6001 20.136C41.6001 10.344 33.6561 2.40002 23.8641 2.40002C14.0721 2.40002 6.12811 10.344 6.12811 20.136C6.12811 28.848 12.4161 36.096 20.7041 37.584L19.8721 39.032C19.4881 39.704 19.9681 40.536 20.7441 40.536H22.3281V55.528C22.3281 56.376 23.0161 57.072 23.8721 57.072C24.7281 57.072 25.4161 56.384 25.4161 55.528V40.536H27.0001C27.7761 40.536 28.2561 39.704 27.8721 39.032L27.0401 37.584C35.3281 36.096 41.6161 28.848 41.6161 20.136H41.6001Z" fill="#F07348"/>
<path d="M65.3121 2.40002H58.5041C58.5041 5.28802 56.1601 7.63202 53.2721 7.63202C50.3841 7.63202 48.0401 5.28802 48.0401 2.40002H41.2321C41.2321 3.48002 40.9041 4.48002 40.3441 5.31202C43.8801 9.24002 46.0401 14.44 46.0401 20.128C46.0401 27.816 42.1121 34.704 36.0001 38.696V51.832C38.8881 51.832 41.2321 54.176 41.2321 57.064H48.0401C48.0401 54.176 50.3841 51.832 53.2721 51.832C56.1601 51.832 58.5041 54.176 58.5041 57.064H65.3121C65.3121 54.176 67.6561 51.832 70.5441 51.832V7.63202C67.6561 7.63202 65.3121 5.28802 65.3121 2.40002Z" fill="#FFD56B"/>
</svg>
