<svg width="250" height="250" viewBox="0 0 250 250" fill="none" xmlns="http://www.w3.org/2000/svg">
<path d="M14.7 242.025C14.7 240.8 15.475 239.6 17.95 237.725V209.95C15.975 208.45 14.85 206.85 14.85 205.65C14.85 204.45 15.525 203.375 18.225 203.375H35.3C38.175 203.375 38.775 202.15 40.775 202.15C42.2 202.15 43.375 202.875 44.2 204.625C45.3 207.1 45.85 209.65 45.9 212.35C45.95 214 45.175 215.225 43.75 215.225C42.525 215.225 41.65 214.45 40.725 213.025C39 210.475 37.85 209.975 34.55 209.975H28.575V218.925H33.65C35.25 218.925 36.35 217.425 37.9 217.425C38.85 217.425 39.55 217.925 40.225 219.025C41.325 220.8 42.2 224 42.2 226.7C42.2 228.25 41.425 229.175 40.325 229.175C39.375 229.175 38.725 228.8 37.625 227.675C35.975 226.025 35.125 225.4 33.15 225.4H28.575V237.6H35.75C39.075 237.6 40.125 236.925 41.925 234.225C42.875 232.8 43.75 232.025 44.975 232.025C46.4 232.025 47.075 233.25 47.125 234.9C47.225 237.725 46.575 240.375 45.425 242.975C44.6 244.75 43.425 245.45 42 245.45C40.025 245.45 39.4 244.225 36.525 244.225H17.8C15.7 244.225 14.7 243.275 14.7 241.95V242.025Z" fill="#262626"/>
<path d="M63.975 240.75C60.725 234.85 54.85 218.05 52.375 209.55C50.45 207.9 49.35 206.675 49.35 205.4C49.35 204.125 49.95 203.125 52.775 203.125H63.275C66.3 203.125 66.7 204.175 66.7 205.4C66.7 206.625 65.6 207.775 63.65 209.55C65.475 216.45 68.85 226.675 70.875 232.575H71.325C73.475 226.775 76.675 216.6 78.225 209.55C76.3 207.775 75.2 206.675 75.2 205.4C75.2 204.125 75.575 203.125 78.625 203.125H86.35C89.4 203.125 90 204.175 90 205.4C90 206.775 89 208 86.8 209.825C84.325 218.375 79.125 234.95 76.2 240.6C74.925 243.075 73.45 244.625 70.3 244.625C66.325 244.625 65.325 243.125 64 240.75H63.975Z" fill="#262626"/>
<path d="M93.1 242.025C93.1 240.8 93.875 239.6 96.35 237.725V209.95C94.375 208.45 93.25 206.85 93.25 205.65C93.25 204.45 93.925 203.375 96.625 203.375H113.7C116.575 203.375 117.175 202.15 119.175 202.15C120.625 202.15 121.775 202.875 122.6 204.625C123.7 207.1 124.25 209.65 124.3 212.35C124.35 214 123.575 215.225 122.15 215.225C120.925 215.225 120.05 214.45 119.125 213.025C117.4 210.475 116.25 209.975 112.95 209.975H106.975V218.925H112.05C113.65 218.925 114.75 217.425 116.3 217.425C117.25 217.425 117.95 217.925 118.625 219.025C119.725 220.8 120.625 224 120.625 226.7C120.625 228.25 119.85 229.175 118.75 229.175C117.8 229.175 117.15 228.8 116.05 227.675C114.4 226.025 113.575 225.4 111.575 225.4H107V237.6H114.175C117.5 237.6 118.55 236.925 120.35 234.225C121.3 232.8 122.175 232.025 123.4 232.025C124.825 232.025 125.5 233.25 125.55 234.9C125.65 237.725 125 240.375 123.85 242.975C123.025 244.75 121.85 245.45 120.425 245.45C118.425 245.45 117.825 244.225 114.95 244.225H96.225C94.125 244.225 93.125 243.275 93.125 241.95L93.1 242.025Z" fill="#262626"/>
<path d="M156.45 241.65L141.65 219.325V237.875C143.575 239.65 144.7 240.75 144.7 242.025C144.7 243.3 144.3 244.3 141.275 244.3H133.475C130.45 244.3 130.05 243.25 130.05 242.025C130.05 240.8 131.15 239.65 133.1 237.875V209.55C131.175 207.775 130.05 206.675 130.05 205.4C130.05 204.125 130.45 203.125 133.475 203.125H138.825C142.525 203.125 143.35 204 144.9 206.325L157.5 225V209.525C155.575 207.75 154.475 206.65 154.475 205.375C154.475 204.1 154.85 203.1 157.9 203.1H165.7C168.75 203.1 169.125 204.15 169.125 205.375C169.125 206.6 168.025 207.75 166.1 209.525V239.675C166.1 242.775 164.6 244.525 161.4 244.525C159.25 244.525 157.975 243.875 156.475 241.6L156.45 241.65Z" fill="#262626"/>
<path d="M182.525 242.025C182.525 240.75 183.625 239.65 185.55 237.875V209.875H184C181.075 209.875 179.975 211.15 178.15 213.9C177.2 215.4 176.225 216.175 175 216.175C173.5 216.175 172.8 214.9 172.725 213.25C172.675 210.425 173.325 207.55 174.275 204.575C174.875 202.7 176.15 202.15 177.525 202.15C179.4 202.15 179.95 203.375 183.275 203.375H198.4C201.725 203.375 202.275 202.15 204.15 202.15C205.525 202.15 206.8 202.7 207.4 204.575C208.35 207.55 209 210.425 208.95 213.25C208.9 214.9 208.175 216.175 206.675 216.175C205.45 216.175 204.475 215.4 203.525 213.9C201.7 211.15 200.6 209.875 197.675 209.875H196.125V237.875C198.05 239.65 199.175 240.75 199.175 242.025C199.175 243.3 198.775 244.3 195.75 244.3H185.925C182.875 244.3 182.5 243.25 182.5 242.025H182.525Z" fill="#262626"/>
<path d="M229.2 242.025C229.2 240.75 230.3 239.65 232.225 237.875L231.125 233.4H219.25C218.8 235 218.425 236.5 218.1 237.875C220.025 239.65 221.15 240.75 221.15 242.025C221.15 243.3 220.75 244.3 217.725 244.3H210.325C207.3 244.3 206.9 243.25 206.9 242.025C206.9 240.8 208 239.65 209.95 237.875C212.325 228.55 215.525 218.925 218.85 209.75C217.35 208.375 216.2 207.1 216.2 205.45C216.2 203.9 217.575 203.125 221.05 203.125H226.8C231.225 203.125 232.825 203.85 234.1 207.375C237.025 215.6 240.725 226.975 243.6 237.875C245.525 239.65 246.65 240.75 246.65 242.025C246.65 243.3 246.25 244.3 243.225 244.3H232.675C229.625 244.3 229.25 243.25 229.25 242.025H229.2ZM229.325 226.775C228 222.025 226.625 217.325 225.525 213.95H225.025C223.8 217.925 222.425 222.4 221.15 226.775H229.325Z" fill="#262626"/>
<path d="M130 62.925C130 32.325 105.175 7.5 74.575 7.5C43.975 7.5 19.15 32.325 19.15 62.925C19.15 90.15 38.8 112.8 64.7 117.45L62.1 121.975C60.9 124.075 62.4 126.675 64.825 126.675H69.775V173.525C69.775 176.175 71.925 178.35 74.6 178.35C77.275 178.35 79.425 176.2 79.425 173.525V126.675H84.375C86.8 126.675 88.3 124.075 87.1 121.975L84.5 117.45C110.4 112.8 130.05 90.15 130.05 62.925H130Z" fill="#F07348"/>
<path d="M204.1 7.5H182.825C182.825 16.525 175.5 23.85 166.475 23.85C157.45 23.85 150.125 16.525 150.125 7.5H128.85C128.85 10.875 127.825 14 126.075 16.6C137.125 28.875 143.875 45.125 143.875 62.9C143.875 86.925 131.6 108.45 112.5 120.925V161.975C121.525 161.975 128.85 169.3 128.85 178.325H150.125C150.125 169.3 157.45 161.975 166.475 161.975C175.5 161.975 182.825 169.3 182.825 178.325H204.1C204.1 169.3 211.425 161.975 220.45 161.975V23.85C211.425 23.85 204.1 16.525 204.1 7.5Z" fill="#FFD56B"/>
</svg>
